PathFileType	4	(X/Y/Z)	OpenSim_Sub08_EMGStiffKnee_Accel.trc
DataRate	CameraRate	NumFrames	NumMarkers	Units	OrigDataRate	OrigDataStartFrame	OrigNumFrames
100	100	17	8	m	100	1	6301
Frame#	Time	torso_imu_offset_imu	pelvis_imu_offset_imu	tibia_r_imu_offset_imu	femur_r_imu_offset_imu	tibia_l_imu_offset_imu	femur_l_imu_offset_imu	toes_r_imu_offset_imu	toes_l_imu_offset_imu
				X1	Y1	Z1	X2	Y2	Z2	X3	Y3	Z3	X4	Y4	Z4	X5	Y5	Z5	X6	Y6	Z6	X7	Y7	Z7	X8		Y8	Z8	

1	0	9.18683969	-0.13382178	6.26438300	9.28950508	0.10847299	3.64206493	9.85579749	0.38129591	0.57981659	9.79494216	-0.57060770	1.63331550	9.72331985	-0.62234960	1.34309169	9.86674469	0.11058594	0.08109693	5.17409043	-1.34766468	8.50600240	5.60668719	0.60846951	10.82986054
2	0.01000000	9.17969842	-0.08588040	6.26499462	9.29361114	0.11352474	3.67186356	9.87719765	0.39316350	0.63073313	9.79337935	-0.56971838	1.63677576	9.73950403	-0.61244389	1.36223638	9.81874577	0.10213351	0.04528125	5.14126777	-1.34591500	8.47832378	5.60356580	0.59621367	10.78966586
3	0.02000000	9.16908428	-0.12375034	6.26892039	9.29143007	0.14406081	3.62343189	9.86122820	0.36013270	0.62627338	9.79359659	-0.57039934	1.63561630	9.72333565	-0.62936273	1.38521291	9.82036116	0.11478619	0.06650038	5.16210070	-1.36216228	8.48261766	5.59798751	0.58198943	10.80951832
4	0.03000000	9.21386444	-0.09965936	6.27390278	9.29602622	0.17207035	3.67532720	9.86480117	0.35199761	0.58358889	9.79723554	-0.55893085	1.61967755	9.74178808	-0.62865779	1.37152216	9.85169706	0.09546640	0.06282146	5.17369867	-1.34278153	8.50793718	5.60093174	0.60130256	10.79429864
5	0.04000000	9.16906555	-0.13387609	6.22112479	9.30802317	0.14984119	3.63655469	9.87274971	0.32968070	0.60892642	9.79026069	-0.57487022	1.64236667	9.73900576	-0.59582465	1.39246044	9.81487970	0.11467686	0.10170583	5.17203219	-1.31001586	8.48820040	5.59781210	0.62106639	10.81508427
6	0.05000000	9.17313445	-0.11853144	6.19773252	9.31782244	0.15972136	3.62503053	9.88263282	0.29963853	0.56496891	9.76975655	-0.57093298	1.63795149	9.72050091	-0.63727775	1.35192928	9.82035870	0.11601169	0.09862783	5.17193448	-1.34705452	8.48325883	5.57992486	0.58583677	10.78539355
7	0.06000000	9.17582915	-0.10389131	6.18000787	9.30743967	0.15073524	3.64481021	9.87970896	0.30462837	0.59180220	9.78177293	-0.60130314	1.59196145	9.70510324	-0.61889060	1.33429870	9.83989305	0.12568507	0.10066324	5.15550754	-1.35880184	8.45585326	5.62494787	0.60296573	10.84115254
8	0.07000000	9.19691712	-0.08201158	6.22034886	9.34794691	0.14983383	3.64177432	9.87488580	0.33061549	0.58430148	9.75833323	-0.61073670	1.61650540	9.72552046	-0.63245860	1.35744744	9.81525897	0.11888816	0.09715537	5.15672030	-1.35765823	8.46187999	5.57185958	0.60990461	10.80598299
9	0.08000000	9.18121470	-0.12367431	6.19081055	9.32883860	0.13664396	3.62627732	9.90172747	0.38777575	0.57481853	9.80423947	-0.62389907	1.61165918	9.73888879	-0.61215327	1.33560881	9.81221207	0.14035598	0.08678257	5.16956825	-1.34351280	8.48610797	5.58483640	0.57934093	10.82134883
10	0.09000000	9.20539271	-0.09521030	6.23447302	9.32770101	0.11121729	3.61489055	9.87676465	0.37443169	0.57846990	9.78049454	-0.60490350	1.59746213	9.72123343	-0.58879444	1.38416450	9.83598173	0.14144991	0.12144588	5.16932754	-1.34179882	8.46490507	5.58404858	0.61053384	10.83981598
11	0.10000000	9.21093905	-0.11776574	6.21768222	9.32963822	0.14144220	3.63357463	9.87999869	0.37887864	0.59926829	9.77937157	-0.62114059	1.61934129	9.72412365	-0.56510847	1.37234233	9.83989919	0.13411432	0.09311018	5.16317251	-1.34524811	8.48722891	5.59038483	0.63363758	10.80733602
12	0.11000000	9.23486694	-0.10772106	6.24525111	9.34354796	0.12069784	3.63282263	9.90414225	0.38085414	0.57333535	9.78485903	-0.60281237	1.63559199	9.73926744	-0.55517719	1.39164997	9.83042892	0.15687291	0.05365755	5.13111877	-1.34519900	8.46702922	5.59300268	0.58926600	10.83537378
13	0.12000000	9.20823801	-0.10419656	6.18341927	9.35238978	0.12906540	3.61784718	9.89745665	0.37857329	0.57545328	9.78339579	-0.60777649	1.63048158	9.72173680	-0.54898234	1.40566730	9.81737658	0.12651750	0.09695249	5.16640338	-1.34814191	8.51200997	5.57998673	0.61926773	10.82876455
14	0.13000000	9.18707345	-0.09553230	6.16922045	9.32302566	0.11269566	3.62180922	9.85697495	0.35605315	0.57691070	9.77547201	-0.62823338	1.58698385	9.72255473	-0.58391401	1.38123939	9.83524502	0.16520826	0.04985365	5.17586376	-1.32261289	8.44528556	5.58968204	0.58944671	10.83422607
15	0.14000000	9.19078529	-0.10418314	6.22352208	9.32239899	0.14527086	3.60523616	9.89822982	0.32169809	0.58490782	9.77709577	-0.62763772	1.62303611	9.72504812	-0.59133985	1.35466933	9.85436230	0.16569385	0.08841781	5.12459977	-1.35195367	8.49426347	5.59497499	0.61741818	10.80352435
16	0.15000000	9.19198789	-0.09942215	6.24764242	9.31313112	0.16377488	3.60841343	9.88636419	0.34192266	0.57751315	9.77187097	-0.64271927	1.60881409	9.73661317	-0.58189987	1.37001562	9.83368328	0.16160505	0.08212884	5.16126868	-1.34836499	8.49089277	5.59685095	0.57312532	10.82630094
17	0.16000000	9.19244260	-0.10702041	6.20991430	9.35056772	0.16141402	3.60807685	9.88970425	0.33892669	0.55770252	9.78339485	-0.60933620	1.64269429	9.68801472	-0.58532000	1.35737613	9.84582926	0.19083533	0.07286266	5.15371150	-1.34584997	8.46835358	5.57292457	0.62774619	10.77471452
